<svg xmlns="http://www.w3.org/2000/svg" xmlns:xlink="http://www.w3.org/1999/xlink" width="128" height="128" preserveAspectRatio="xMidYMid meet" viewBox="0 0 128 128" style="-ms-transform: rotate(360deg); -webkit-transform: rotate(360deg); transform: rotate(360deg);"><linearGradient id="IconifyId-16c8c79ba70-1d6caf-3272" x1="68.214" x2="68.214" y1="26.055" y2="70.921" gradientTransform="matrix(1.0244 -.2537 .0584 .9617 -6.07 18.203)" gradientUnits="userSpaceOnUse"><stop stop-color="#F5F5F5" offset=".1"/><stop stop-color="#D0D8DC" offset="1"/></linearGradient><path d="M19.75 36.08s-.28 18.15 13.47 21.32c13.74 3.16 33.41 9.6 39.46 10.75 10.34 1.97 31.09 4.23 36.57-4.07 10.25-15.5-1.23-34.48-20.34-38.17s-53.84-1.42-61.76 3.3-7.4 6.87-7.4 6.87z" fill="url(#IconifyId-16c8c79ba70-1d6caf-3272)"/><ellipse transform="rotate(-60.765 81.645 60.9)" cx="81.64" cy="60.9" rx="4.71" ry="2.52" fill="#B0BEC5" opacity=".6"/><ellipse transform="rotate(-28.14 69.718 52.412)" cx="69.71" cy="52.41" rx="4.93" ry="2.41" fill="#D0D8DC" opacity=".2"/><ellipse transform="rotate(-26.051 56.745 57.583)" cx="56.74" cy="57.58" rx="4.92" ry="2.42" fill="#D0D8DC" opacity=".2"/><ellipse transform="rotate(-26.051 69.186 59.197)" cx="69.18" cy="59.2" rx="4.92" ry="2.42" fill="#B0BEC5" opacity=".6"/><ellipse transform="rotate(-47.273 45.206 55.415)" cx="45.21" cy="55.42" rx="4.91" ry="2.42" fill="#D0D8DC" opacity=".2"/><ellipse transform="rotate(-47.273 26.397 42.101)" cx="26.4" cy="42.1" rx="4.91" ry="2.42" fill="#D0D8DC" opacity=".2"/><ellipse transform="rotate(-12.864 31.288 50.424)" cx="31.29" cy="50.42" rx="4.74" ry="2.51" fill="#D0D8DC" opacity=".2"/><ellipse transform="rotate(-37.266 39.304 39.03)" cx="39.3" cy="39.03" rx="4.96" ry="2.4" fill="#D0D8DC" opacity=".2"/><ellipse transform="rotate(-33.488 58.247 41.55)" cx="58.25" cy="41.55" rx="2.96" ry="4.01" fill="#D0D8DC" opacity=".2"/><ellipse transform="rotate(-24.474 43.977 46.711)" cx="43.98" cy="46.71" rx="4.9" ry="2.43" fill="#D0D8DC" opacity=".2"/><ellipse transform="rotate(-7.987 59.768 46.328)" cx="59.79" cy="46.34" rx="4.65" ry="2.56" fill="#D0D8DC" opacity=".2"/><linearGradient id="IconifyId-16c8c79ba70-1d6caf-3273" x1="35.468" x2="112.24" y1="10.439" y2="73.312" gradientTransform="matrix(1.026 -.2037 .00538 .9736 -1.919 14.356)" gradientUnits="userSpaceOnUse"><stop stop-color="#F4805C" offset=".259"/><stop stop-color="#F05323" offset="1"/></linearGradient><path d="M125.42 59.62s-8.25-8.68-13.64-18.71S82.65 3.67 42.29 14.8c-14.58 4.02-20.46 9.09-23.93 12.73-2.25 2.37-3.8 5.02-4.42 7.29 12.2-6.58 24.76-3.84 35.32 1.26 21.25 10.25 41.67 22.85 65.87 27.16 7.35-1.03 10.29-3.62 10.29-3.62z" fill="url(#IconifyId-16c8c79ba70-1d6caf-3273)"/><path d="M13.93 34.83c-.96 3.49.27 6.07 4.49 5.35 6.97-1.19 11.66-6.21 21.94-2.99s36.81 21.5 54.51 25c8.88 1.76 15.49 1.73 20.26 1.06C73.5 52.08 72.32 44.91 50.25 34.58c-11.75-5.5-29.5-5-36.32.25z" fill="#EF4137"/><defs><path id="IconifyId-16c8c79ba70-1d6caf-3274" d="M111.78 41.23C106.39 31.2 82.65 3.99 42.29 15.12c-14.58 4.02-20.46 9.09-23.93 12.73-2.25 2.37-3.8 5.02-4.42 7.29-.96 3.49.27 6.07 4.49 5.35 6.97-1.19 11.66-6.21 21.94-2.99s36.81 21.5 54.51 25c8.88 1.76 15.49 1.73 20.26 1.06 7.36-1.04 10.3-3.62 10.3-3.62s-8.27-8.68-13.66-18.71z"/></defs><clipPath id="IconifyId-16c8c79ba70-1d6caf-3275"><use xlink:href="#IconifyId-16c8c79ba70-1d6caf-3274"/></clipPath><g clip-path="url(#IconifyId-16c8c79ba70-1d6caf-3275)" fill="#FBCBBD" opacity=".6"><path d="M27.14 37.61c.67.75 1.59-.58 1.04-1.21-2.9-3.27-2.53-6.72-.52-9.78-.36-.51-.67-1.09-.94-1.74-3.17 4.31-2.42 9.53.42 12.73z" opacity=".6"/><path d="M48.93 12.27c.68-.65-.12-1.91-.93-1.13-2.78 2.65-6.12 4.19-9.47 5.69 1.43-.11 2.87-.22 4.31-.32 2.12-1.09 4.11-2.35 6.09-4.24z" opacity=".6"/><path d="M37.54 18.93c1.89-.83 3.63-1.57 5.3-2.42-1.44.11-2.88.21-4.31.32-4.31 1.93-8.61 3.81-11.72 7.91-.03.04-.06.09-.09.13.26.65.57 1.24.94 1.74 2.1-3.2 6.01-5.98 9.88-7.68z" opacity=".6"/><path d="M56.39 22.11c5.51-2.21 10.5-4.29 15.23-7.83-.92-.05-1.83-.08-2.76-.11-3.14 2.15-6.47 3.79-10.05 5.18-2.79 1.08-6.29.98-8.83 2.79-2.26 1.61-3.27 4.71-4.13 6.99.6.2 1.21.4 1.82.59.14-.36.28-.72.46-1.08 1.77-3.62 4.69-5.1 8.26-6.53z" opacity=".6"/><path d="M45.1 40.64c.14.94 1.97.99 1.8-.16-.52-3.49-.67-7.09.78-10.75-.61-.19-1.22-.39-1.82-.59-1.42 3.79-1.27 8.09-.76 11.5z" opacity=".6"/><path d="M74.19 12.21c.83-.74-.57-1.82-1.42-1.07a39.084 39.084 0 0 1-3.91 3.03c.92.02 1.84.06 2.76.11.87-.64 1.72-1.32 2.57-2.07z" opacity=".6"/><path d="M57.02 49.64c-.49.46-.24 2.2.18 1.8 2.21-2.08 3.89-4.23 4.32-7.03.16-1.03.05-1.99 0-2.98-.37-.06-.73-.08-1.06-.01.08 2.65-.06 5.04-3.44 8.22z" opacity=".8"/><path d="M88.46 19.06c.48-.47.23-2.2-.18-1.8-1.3 1.26-2.68 2.18-4.11 2.9.7.21 1.4.44 2.09.68.74-.52 1.48-1.09 2.2-1.78z" opacity=".6"/><path d="M60.61 36.7c-.31 1.77-.2 3.28-.15 4.72.33-.08.69-.05 1.06.01 0-.04 0-.08-.01-.12-.07-1.73 0-3.36.33-4.91-.38-.03-.76-.07-1.14-.1-.02.13-.06.26-.09.4z" opacity=".6"/><path d="M66.57 28.85c5.9-4.95 13.42-3.77 19.68-8.01-.69-.24-1.38-.47-2.09-.68-5.83 2.94-14.68 2.83-20 7.31-3.02 2.54-2.74 5.32-3.46 8.83.38.04.76.07 1.14.1.58-2.73 1.94-5.22 4.73-7.55z" opacity=".6"/><path d="M78.7 46.86c.65 0 1.28.01 1.9.06-.64-1.94-.34-3.91.99-6.07l-2.17.12c-1.05 2.14-1.31 4.06-.72 5.89z" opacity=".6"/><path d="M82.49 39.55c2.71-3.46 6.6-3.89 10.32-5.16 2.39-.81 4.56-1.87 6.6-3.18-.54-.42-1.09-.82-1.65-1.21-2.94 1.76-6.02 2.96-9.59 4.09-3.51 1.12-6 2.24-8.07 5.63-.26.43-.48.84-.68 1.25.72-.04 1.44-.07 2.17-.12.26-.42.55-.85.9-1.3z" opacity=".6"/><path d="M105.09 26.64c.58-.57-.89-1.75-1.52-1.14a31.357 31.357 0 0 1-5.82 4.5c.56.39 1.11.79 1.65 1.21 2-1.28 3.86-2.8 5.69-4.57z" opacity=".6"/><path d="M82.08 50.1c-.13-.73-.54-1.16-.88-1.77-.26-.47-.45-.94-.6-1.41-.61-.05-1.25-.06-1.9-.06.16.5.37 1 .66 1.49 2.23 3.74-2.28 5.93-1.7 9.69.1.64 1.85 1.39 1.72.52-.43-2.79 3.21-5.53 2.7-8.46z" opacity=".8"/><path d="M94.9 50.8c-.17 5.1 4.72 7.5-.76 13.06-.46.47.9 1.7 1.38 1.22 3.21-3.26 3.42-5.95 2.28-9.47-.72-2.21-1.01-3.89-.34-5.86-.74-.2-1.48-.39-2.21-.54-.2.52-.33 1.05-.35 1.59z" opacity=".8"/><path d="M114.48 34.96c-.3-.5-1.88-1.05-1.26-.03 3.1 5.09-3.84 4.68-7.18 5.41-3.21.7-5.29 1.56-7.51 4.16-1.29 1.51-2.66 3.07-3.28 4.72.73.15 1.47.34 2.21.54.24-.73.61-1.49 1.14-2.35 1.4-2.23 2.98-3.84 5.44-4.84 5-2.05 14.72-.57 10.44-7.61z"/></g><path d="M61.12 15.18c27.61 0 44.2 19.6 48.26 27.16 3.76 7 8.8 13.29 11.73 16.69-1.41.57-3.44 1.18-6.16 1.56-1.65.23-3.48.36-5.42.38-1 .01-1.93.52-2.48 1.36-.03.04-.05.09-.08.13C105 65.39 99.34 67 91.03 67c-7.08 0-14.03-1.13-17.54-1.8-2.64-.5-8.27-2.14-14.8-4.04-7.99-2.32-17.04-4.96-24.55-6.69-4.12-.95-9.35-4.28-10.85-14.77-.12-.85-.6-1.6-1.31-2.07-.5-.33-1.08-.5-1.66-.5-.25 0-.51.03-.75.1-.56.14-.99.24-1.4.31-.3.05-.58.08-.82.08-.22 0-.36-.02-.44-.04-.02-.09-.04-.26-.03-.49v-.16c-.01-.37.06-.83.19-1.3.51-1.87 1.9-4.11 3.7-6.01 3.42-3.59 9.07-8.19 22.56-11.91 6.06-1.68 12.05-2.53 17.79-2.53m0-3c-5.74 0-11.94.79-18.59 2.63-14.58 4.02-20.46 9.09-23.93 12.73-2.25 2.37-3.8 5.02-4.42 7.29-.21.77-.31 1.49-.3 2.14-.09 2.15.98 3.65 3.47 3.65.4 0 .84-.04 1.32-.12.56-.1 1.11-.22 1.65-.36.79 5.54 3.55 15.06 13.15 17.27C47.21 60.56 66.88 67 72.93 68.15c4.69.89 11.52 1.85 18.1 1.85 7.92 0 15.48-1.38 18.47-5.91.02-.04.04-.07.07-.11 2.18-.02 4.12-.17 5.81-.41 7.36-1.04 10.3-3.62 10.3-3.62s-.07-.07-.17-.18c.11-.08.17-.13.17-.13s-8.25-8.68-13.64-18.71c-4.52-8.39-21.82-28.75-50.92-28.75z" fill="#434343" opacity=".2"/><linearGradient id="IconifyId-16c8c79ba70-1d6caf-3276" x1="56.447" x2="56.447" y1="70.002" y2="114.87" gradientTransform="matrix(1.0244 -.2537 .0584 .9617 -6.07 18.203)" gradientUnits="userSpaceOnUse"><stop stop-color="#F5F5F5" offset=".1"/><stop stop-color="#D0D8DC" offset="1"/></linearGradient><path d="M10.26 81.34s-.28 18.15 13.47 21.32c13.75 3.16 33.41 9.59 39.46 10.75 10.34 1.97 31.09 4.23 36.57-4.07 10.25-15.5-1.23-34.48-20.34-38.17s-53.84-1.42-61.76 3.3-7.4 6.87-7.4 6.87z" fill="url(#IconifyId-16c8c79ba70-1d6caf-3276)"/><ellipse transform="rotate(-60.765 72.155 106.153)" cx="72.15" cy="106.15" rx="4.71" ry="2.52" fill="#B0BEC5" opacity=".6"/><ellipse transform="rotate(-15.188 85.151 106.65)" cx="85.15" cy="106.65" rx="4.71" ry="2.52" fill="#B0BEC5" opacity=".6"/><ellipse transform="rotate(-28.14 60.226 97.667)" cx="60.22" cy="97.66" rx="4.93" ry="2.41" fill="#D0D8DC" opacity=".2"/><ellipse transform="rotate(-26.051 47.256 102.837)" cx="47.25" cy="102.83" rx="4.92" ry="2.42" fill="#D0D8DC" opacity=".2"/><ellipse transform="rotate(-26.051 59.697 104.452)" cx="59.69" cy="104.45" rx="4.92" ry="2.42" fill="#B0BEC5" opacity=".6"/><ellipse transform="rotate(-47.273 35.715 100.665)" cx="35.72" cy="100.67" rx="4.91" ry="2.42" fill="#D0D8DC" opacity=".2"/><ellipse transform="rotate(-47.273 16.907 87.35)" cx="16.91" cy="87.35" rx="4.91" ry="2.42" fill="#D0D8DC" opacity=".2"/><ellipse transform="rotate(-12.864 21.796 95.674)" cx="21.8" cy="95.67" rx="4.74" ry="2.51" fill="#D0D8DC" opacity=".2"/><ellipse transform="rotate(-37.266 29.813 84.282)" cx="29.81" cy="84.28" rx="4.96" ry="2.4" fill="#D0D8DC" opacity=".2"/><ellipse transform="rotate(-33.488 48.76 86.798)" cx="48.76" cy="86.8" rx="2.96" ry="4.01" fill="#D0D8DC" opacity=".2"/><ellipse transform="rotate(-24.474 34.487 91.962)" cx="34.49" cy="91.97" rx="4.9" ry="2.43" fill="#D0D8DC" opacity=".2"/><ellipse transform="rotate(-7.987 50.277 91.567)" cx="50.3" cy="91.59" rx="4.65" ry="2.56" fill="#D0D8DC" opacity=".2"/><linearGradient id="IconifyId-16c8c79ba70-1d6caf-3277" x1="25.986" x2="102.76" y1="54.936" y2="117.81" gradientTransform="matrix(1.026 -.2037 .00538 .9736 -1.919 14.356)" gradientUnits="userSpaceOnUse"><stop stop-color="#F05454" offset=".259"/><stop stop-color="#ED1C24" offset="1"/></linearGradient><path d="M115.93 104.87s-8.25-8.68-13.64-18.71c-5.39-10.02-29.14-37.23-69.5-26.1-14.58 4.02-20.46 9.09-23.93 12.73-2.25 2.37-3.8 5.02-4.42 7.29 12.2-6.58 24.76-3.84 35.32 1.26 21.25 10.25 41.67 22.85 65.87 27.16 7.36-1.04 10.3-3.63 10.3-3.63z" fill="url(#IconifyId-16c8c79ba70-1d6caf-3277)"/><path d="M4.44 80.08c-.96 3.49.27 6.07 4.49 5.35 6.97-1.19 11.55-5.81 21.82-2.6s36.92 21.1 54.62 24.6c8.88 1.76 15.49 1.73 20.26 1.06-41.62-11.16-42.8-18.33-64.87-28.66-11.75-5.49-29.5-4.99-36.32.25z" fill="#CB2027"/><defs><path id="IconifyId-16c8c79ba70-1d6caf-3278" d="M102.29 86.49C96.9 76.46 73.15 49.25 32.8 60.37 18.22 64.39 12.34 69.46 8.87 73.1c-2.25 2.37-3.8 5.02-4.42 7.29-.96 3.49.27 6.07 4.49 5.35 6.97-1.19 11.66-6.21 21.94-2.99s37.31 21.33 55.01 24.83c8.88 1.76 14.99 1.9 19.76 1.23 7.36-1.04 10.3-3.62 10.3-3.62s-8.27-8.68-13.66-18.7z"/></defs><clipPath id="IconifyId-16c8c79ba70-1d6caf-3279"><use xlink:href="#IconifyId-16c8c79ba70-1d6caf-3278"/></clipPath><g clip-path="url(#IconifyId-16c8c79ba70-1d6caf-3279)" fill="#A31E22" opacity=".6"><path d="M17.65 82.86c.23-.02 1.59-.58 1.04-1.21-2.9-3.27-2.53-6.72-.52-9.78-.36-.51-.67-1.09-.94-1.74-3.17 4.31-3.83 13.19.42 12.73z" opacity=".6"/><path d="M39.44 57.52c.68-.65-.12-1.91-.93-1.13-2.78 2.65-6.12 4.19-9.47 5.69 1.43-.11 2.87-.22 4.31-.32 2.12-1.09 4.11-2.35 6.09-4.24z" opacity=".6"/><path d="M28.05 64.18c1.89-.83 3.63-1.57 5.3-2.42-1.44.11-2.88.21-4.31.32-4.31 1.93-8.61 3.81-11.72 7.91-.03.04-.06.09-.09.13.26.65.57 1.24.94 1.74 2.1-3.2 6.01-5.98 9.88-7.68z" opacity=".6"/><path d="M46.9 67.36c5.51-2.21 10.5-4.29 15.23-7.83-.92-.05-1.83-.08-2.76-.11-3.14 2.15-6.47 3.79-10.05 5.18-2.79 1.08-6.29.98-8.83 2.79-2.26 1.61-3.27 4.71-4.13 6.99.6.2 1.21.4 1.82.59.14-.36.28-.72.46-1.08 1.77-3.62 4.69-5.09 8.26-6.53z" opacity=".6"/><path d="M35.61 85.9c.14.94 1.97.99 1.8-.16-.52-3.49-.67-7.09.78-10.75-.61-.19-1.22-.39-1.82-.59-1.42 3.79-1.27 8.08-.76 11.5z" opacity=".6"/><path d="M64.7 57.46c.83-.74-.57-1.82-1.42-1.07a39.084 39.084 0 0 1-3.91 3.03c.92.02 1.84.06 2.76.11.86-.64 1.72-1.32 2.57-2.07z" opacity=".6"/><path d="M47.53 94.89c-.49.46-.24 2.2.18 1.8 2.21-2.08 3.89-4.23 4.32-7.03.16-1.03.05-1.99 0-2.98-.37-.06-.73-.08-1.06-.01.08 2.66-.06 5.04-3.44 8.22z" opacity=".6"/><path d="M78.97 64.31c.48-.47.23-2.2-.18-1.8-1.3 1.26-2.68 2.18-4.11 2.9.7.21 1.4.44 2.09.68.74-.52 1.48-1.09 2.2-1.78z" opacity=".6"/><path d="M51.12 81.95c-.31 1.77-.2 3.28-.15 4.72.33-.08.69-.05 1.06.01 0-.04 0-.08-.01-.12-.07-1.73 0-3.36.33-4.91-.38-.03-.76-.07-1.14-.1-.02.13-.06.27-.09.4z" opacity=".6"/><path d="M57.08 74.1c5.9-4.95 13.42-3.77 19.68-8.01-.69-.24-1.38-.47-2.09-.68-5.83 2.94-14.68 2.83-20 7.31-3.02 2.54-2.74 5.32-3.46 8.83.38.04.76.07 1.14.1.58-2.73 1.94-5.21 4.73-7.55z" opacity=".6"/><g opacity=".6"><path d="M69.21 92.11c.65 0 1.28.01 1.9.06-.64-1.94-.34-3.91.99-6.07l-2.17.12c-1.05 2.14-1.31 4.07-.72 5.89z" opacity=".6"/><path d="M73 84.81c2.71-3.46 6.6-3.89 10.32-5.16 2.39-.81 4.56-1.87 6.6-3.18-.54-.42-1.09-.82-1.65-1.21-2.94 1.76-6.02 2.96-9.59 4.09-3.51 1.12-6 2.24-8.07 5.63-.26.43-.48.84-.68 1.25.72-.04 1.44-.07 2.17-.12.26-.43.55-.86.9-1.3z" opacity=".6"/><path d="M95.6 71.9c.58-.57-.89-1.75-1.52-1.14a31.357 31.357 0 0 1-5.82 4.5c.56.39 1.11.79 1.65 1.21 2-1.28 3.86-2.8 5.69-4.57z" opacity=".6"/><path d="M72.59 95.35c-.13-.73-.54-1.16-.88-1.77-.26-.47-.45-.94-.6-1.41-.61-.05-1.25-.06-1.9-.06.16.5.37 1 .66 1.49 2.23 3.74-2.28 5.93-1.7 9.69.1.64 1.85 1.39 1.72.52-.43-2.79 3.21-5.52 2.7-8.46z" opacity=".8"/></g><path d="M85.41 96.05c-.17 5.1 4.72 7.5-.76 13.06-.46.47.9 1.7 1.38 1.22 3.21-3.26 3.42-5.95 2.28-9.47-.72-2.21-1.01-3.89-.34-5.86-.74-.2-1.48-.39-2.21-.54-.2.52-.33 1.05-.35 1.59z" opacity=".6"/><path d="M104.99 80.21c-.3-.5-1.88-1.05-1.26-.03 3.1 5.09-3.84 4.68-7.18 5.41-3.21.7-5.29 1.56-7.51 4.16-1.29 1.51-2.66 3.07-3.28 4.72.73.15 1.47.34 2.21.54.24-.73.61-1.49 1.14-2.35 1.4-2.23 2.98-3.84 5.44-4.84 5-2.05 14.72-.57 10.44-7.61z" opacity=".6"/></g><path d="M51.38 60.1c27.61 0 44.2 19.6 48.26 27.16 3.76 7 8.8 13.29 11.73 16.69-1.41.57-3.43 1.18-6.16 1.56-1.62.23-3.31.34-5.16.34h-.2c-1.01 0-1.96.51-2.51 1.36-.03.05-.07.11-.1.17-1.97 2.93-7.63 4.54-15.95 4.54-7.08 0-14.03-1.12-17.54-1.79-2.64-.5-8.27-2.14-14.8-4.04-7.99-2.32-17.04-4.96-24.55-6.69-4.12-.95-9.35-4.28-10.85-14.77-.12-.85-.6-1.6-1.31-2.07-.5-.33-1.08-.5-1.66-.5-.25 0-.51.03-.75.1-.56.14-.99.24-1.4.31-.3.05-.58.08-.82.08-.22 0-.36-.02-.44-.04-.02-.09-.04-.26-.03-.49v-.16c-.01-.37.06-.83.19-1.3.51-1.87 1.9-4.11 3.7-6.01 3.42-3.59 9.07-8.19 22.56-11.91 6.06-1.69 12.05-2.54 17.79-2.54m0-3c-5.74 0-11.94.79-18.59 2.63-14.58 4.02-20.46 9.09-23.93 12.73-2.25 2.37-3.8 5.02-4.42 7.29-.21.77-.31 1.49-.3 2.14-.09 2.15.98 3.65 3.47 3.65.4 0 .84-.04 1.32-.12.56-.1 1.11-.22 1.65-.36.79 5.54 3.55 15.06 13.15 17.27 13.75 3.16 33.41 9.59 39.46 10.75 4.69.89 11.52 1.85 18.1 1.85 7.92 0 15.48-1.38 18.47-5.91l.09-.15h.2c2.06 0 3.9-.13 5.57-.37 7.36-1.04 10.3-3.62 10.3-3.62s-.07-.07-.17-.18c.11-.08.17-.13.17-.13s-8.25-8.68-13.64-18.71c-4.5-8.4-21.8-28.76-50.9-28.76z" fill="#434343" opacity=".2"/><rect x="0" y="0" width="128" height="128" fill="rgba(0, 0, 0, 0)" /></svg>